<?xml version="1.0" encoding="utf-8"?>
<svg version="1.1" id="Layer_1" xmlns="http://www.w3.org/2000/svg" xmlns:xlink="http://www.w3.org/1999/xlink" x="0px" y="0px"
	 viewBox="0 0 450 67.3" style="enable-background:new 0 0 450 67.3;" xml:space="preserve">
<style type="text/css">
	.st0{fill:#FFFFFF;}
	.st1{fill:#FAA21B;}
	.st2{fill:#0696D7;}
	.st3{fill:#404041;}
</style>
<g>
	<path class="st0" d="M58.7,35.5c0.5,0,0.8,0,1.2,0c5.2,0,10.4,0,15.5,0c0.9,0,1.6,0.3,2.2,0.9c1.2,1.4,2.5,2.7,3.8,4
		c0.4,0.4,1,0.7,1.5,0.7c5.2,0,10.4,0,15.5,0c0.5,0,1.1-0.3,1.5-0.7c1.3-1.3,2.5-2.6,3.7-3.9c0.6-0.7,1.3-1,2.3-1c4.7,0,9.3,0,14,0
		c3.2,0,3.2,0,3.2-3.2c0-2.4,0.2-2.1-2.1-2.2c-1.7,0-1.7,0-2.1-1.6c-1.5-5.8-4.4-10.7-8.9-14.6c-1.4-1.3-3.1-2.3-4.9-3.7
		c-0.1,0.8-0.1,1.2-0.1,1.6c0,3.7,0,7.4,0,11.1c0,0.4,0.2,1.1-0.6,1.1c-1.7,0-3.4,0-5.2,0c0-6.4,0-12.6,0-18.9c-5.8,0-11.4,0-17.2,0
		c0,0.5,0,0.9,0,1.4c0,5.5,0,10.9,0,16.4c0,0.8-0.2,1.2-1.1,1.2c-1.2-0.1-2.4-0.1-3.5,0c-0.9,0-1.1-0.2-1.1-1.1c0-3.7,0-7.4,0-11.1
		c0-0.4,0-0.8,0-1.4c-0.6,0.3-1,0.5-1.3,0.7c-6.6,4.4-10.9,10.3-12.7,18c-0.2,0.7-0.5,1.1-1.3,1c-0.7,0-1.5,0-2.3,0
		C58.7,32,58.7,33.6,58.7,35.5z"/>
	<path class="st0" d="M69.3,41.7c-1.9,0-3.9,0-5.8,0c-1.1,0-1.3,0.2-1,1.3c0.3,1.1,0.6,2.1,1,3.1c5.7,14.1,20.1,21.5,34.7,17.6
		c10.8-2.9,17.6-10.1,20.7-20.8c0.3-1-0.1-1.2-1-1.2c-3.9,0-7.7,0-11.6,0c-0.8,0-1.2,0.4-1.6,1c-0.8,1.3-1.6,2.7-2.6,3.8
		c-7.6,8-20.5,6.1-25.6-3.8c-0.4-0.7-0.7-1-1.5-1C73.1,41.7,71.2,41.7,69.3,41.7z"/>
	<path class="st1" d="M58.7,34.5c0-1.8,0-3.5,0-5.3c0.8,0,1.5,0,2.3,0c0.8,0,1.1-0.3,1.3-1c1.8-7.7,6.1-13.7,12.7-18
		c0.3-0.2,0.7-0.4,1.3-0.7c0,0.6,0,1,0,1.4c0,3.7,0,7.4,0,11.1c0,0.9,0.3,1.2,1.1,1.1c1.2-0.1,2.4-0.1,3.5,0
		c0.9,0.1,1.1-0.3,1.1-1.2c0-5.5,0-10.9,0-16.4c0-0.4,0-0.9,0-1.4c5.8,0,11.4,0,17.2,0c0,6.3,0,12.5,0,18.9c1.8,0,3.5,0,5.2,0
		c0.8,0,0.6-0.6,0.6-1.1c0-3.7,0-7.4,0-11.1c0-0.4,0.1-0.8,0.1-1.6c1.8,1.4,3.4,2.4,4.9,3.7c4.5,3.9,7.5,8.8,8.9,14.6
		c0.4,1.6,0.4,1.6,2.1,1.6c2.3,0,2.1-0.2,2.1,2.2c0,3.2,0,3.2-3.2,3.2c-4.7,0-9.3,0-14,0c-1,0-1.6,0.3-2.3,1
		c-1.2,1.4-2.4,2.7-3.7,3.9c-0.4,0.4-1,0.7-1.5,0.7c-5.2,0-10.4,0-15.5,0c-0.5,0-1.1-0.3-1.5-0.7c-1.3-1.3-2.6-2.6-3.8-4
		c-0.6-0.7-1.3-1-2.2-0.9c-5.2,0-10.4,0-15.5,0C59.5,34.5,59.1,34.5,58.7,34.5z"/>
	<path class="st2" d="M69.3,40.7c1.9,0,3.8,0,5.7,0c0.8,0,1.2,0.3,1.5,1c5,9.9,18,11.9,25.6,3.8c1-1.1,1.8-2.5,2.6-3.8
		c0.4-0.7,0.8-1,1.6-1c3.9,0,7.7,0,11.6,0c0.9,0,1.3,0.2,1,1.2c-3.1,10.7-9.9,17.9-20.7,20.8c-14.6,4-29-3.5-34.7-17.6
		c-0.4-1-0.7-2.1-1-3.1c-0.3-1.1-0.2-1.3,1-1.3C65.4,40.7,67.3,40.7,69.3,40.7z"/>
	<path class="st3" d="M16.4,59.1c-3.7-3.1-5.8-7.3-6.2-12.7h9.5c0.2,2.9,1.1,5.2,3,7s4.9,2.6,9.4,2.6c3.9,0,6.6-0.7,8.2-2.1
		c1.6-1.4,2.4-3.1,2.4-5v-1.7c0-1.6-0.3-2.8-0.9-3.8c-0.6-1-1.7-1.8-3.1-2.5c-1.5-0.7-3.6-1.5-6.5-2.4l-8-2.5
		c-4.2-1.3-7.3-3-9.2-5.1c-1.9-2.1-2.8-4.9-2.8-8.4v-1.8c0-2.4,0.7-4.7,2.1-6.9c1.4-2.2,3.6-3.9,6.6-5.3c3-1.4,6.7-2.1,11.3-2.1
		c6.2,0,11.1,1.4,14.7,4.3c3.6,2.8,5.5,6.9,5.7,12h-9.3c-0.2-2.6-1.2-4.8-2.9-6.4c-1.7-1.6-4.4-2.5-8.1-2.5c-3.6,0-6.1,0.6-7.6,1.9
		c-1.5,1.3-2.3,2.9-2.3,4.7v1.3c0,1.6,0.6,2.9,1.9,4c1.3,1.1,3.6,2.1,6.9,3.1l8,2.5c4.6,1.5,8.1,3.4,10.3,5.7
		c2.2,2.3,3.3,5.4,3.3,9.3v2.1c0,2.8-0.8,5.4-2.3,7.8c-1.6,2.3-3.9,4.2-7,5.6c-3.1,1.4-6.9,2.1-11.3,2.1
		C25.3,63.7,20.1,62.1,16.4,59.1z"/>
	<path class="st3" d="M160.6,21.9c2.4,1.6,4.3,4,5.6,7c1.3,3,2,6.5,2,10.5v4.3c0,3.8-0.8,7.2-2.3,10.3c-1.5,3.1-3.6,5.4-6.2,7.2
		c-2.6,1.7-5.5,2.6-8.7,2.6c-4.4,0-8-1.5-11-4.6l-0.9,3.6h-7.7V4.1h9.8v19.7c2.8-2.9,6.4-4.4,10.9-4.4
		C155.4,19.4,158.2,20.3,160.6,21.9z M158.4,39.1c0-8.1-2.7-12.2-8.2-12.2c-1.8,0-3.5,0.4-5.1,1.2c-1.5,0.8-2.8,1.9-3.9,3.3v21.4
		c2.2,2.3,4.9,3.5,8.1,3.5c2.8,0,5-1.1,6.6-3.2c1.6-2.1,2.4-5.2,2.4-9.1V39.1z"/>
	<path class="st3" d="M229.5,21.1c2,1.1,3.5,2.7,4.7,4.8c1.2,2.1,1.7,4.6,1.7,7.6v29.1h-9.7V34.2c0-2.5-0.5-4.3-1.6-5.5
		c-1.1-1.2-2.5-1.8-4.2-1.8c-2.9,0-5.6,1.8-8,5.3v30.5h-9.8V34.2c0-2.5-0.5-4.4-1.6-5.6c-1.1-1.2-2.4-1.8-4.1-1.8
		c-1.5,0-3,0.4-4.3,1.3c-1.3,0.9-2.6,2.2-3.8,4v30.4h-9.7V20.5h8.4l0.6,4.3c3-3.6,6.8-5.4,11.4-5.4c2.3,0,4.5,0.6,6.5,1.7
		c2,1.1,3.6,2.7,4.7,4.7c3.2-4.3,7.3-6.4,12.3-6.4C225.3,19.4,227.5,20,229.5,21.1z"/>
	<path class="st3" d="M260.2,62.6h-9.8V27.8h-6.3v-7.3h16.1V62.6z M251.3,12.2c-1.1-1.1-1.7-2.5-1.7-4s0.6-2.9,1.7-4
		c1.1-1.1,2.5-1.7,4.1-1.7c1.6,0,3,0.6,4.1,1.7c1.1,1.1,1.7,2.5,1.7,4s-0.6,2.9-1.7,4c-1.1,1.1-2.5,1.7-4.1,1.7
		C253.7,13.9,252.4,13.3,251.3,12.2z"/>
	<path class="st3" d="M296,55.6v7c-2.3,0.7-4.7,1-7.3,1c-4.1,0-7.3-0.9-9.5-2.8c-2.2-1.9-3.3-4.8-3.3-8.7V27.8h-6.4v-7.3h6.6
		l0.8-10.4h8.8v10.4h9.1v7.3h-9.1v23.8c0,1.5,0.4,2.7,1.3,3.4c0.8,0.7,2.1,1.1,3.9,1.1C292.4,56.1,294.1,55.9,296,55.6z"/>
	<path class="st3" d="M327.7,55.6v7c-2.3,0.7-4.7,1-7.3,1c-4.1,0-7.3-0.9-9.5-2.8c-2.2-1.9-3.3-4.8-3.3-8.7V27.8h-6.4v-7.3h6.6
		l0.8-10.4h8.8v10.4h9.1v7.3h-9.1v23.8c0,1.5,0.4,2.7,1.3,3.4c0.8,0.7,2.1,1.1,3.9,1.1C324.1,56.1,325.8,55.9,327.7,55.6z"/>
	<path class="st3" d="M373.2,56.6v6c-1.4,0.7-3,1-4.8,1c-1.7,0-3.3-0.4-4.6-1.2s-2.3-2-3-3.4c-1.6,1.6-3.5,2.8-5.5,3.6
		c-2,0.7-4.4,1.1-7,1.1c-2.5,0-4.9-0.5-7-1.4c-2.2-1-3.9-2.3-5.2-4.1c-1.3-1.8-1.9-3.8-1.9-6.1v-2.8c0-3.5,1.6-6.3,4.7-8.5
		c3.1-2.2,7.4-3.2,12.9-3.2l8.4,0.1v-4.1c0-2.3-0.5-4-1.5-5.2c-1-1.2-2.9-1.8-5.7-1.8c-2.7,0-4.6,0.6-5.9,1.7
		c-1.2,1.2-1.9,2.9-2,5.1h-9.1c0.1-4.1,1.5-7.5,4.5-10.1c2.9-2.6,7.2-3.9,12.9-3.9c5.8,0,10,1.3,12.7,4c2.7,2.7,4,6.2,4,10.5v20.4
		c0,1.6,0.8,2.5,2.5,2.5L373.2,56.6z M355.7,55.2c1.7-0.8,3.2-2,4.3-3.6v-7.9h-7.4c-2.9,0-5.1,0.5-6.6,1.5c-1.5,1-2.2,2.5-2.2,4.5
		v1.7c0,1.5,0.5,2.8,1.6,3.7c1.1,0.9,2.6,1.4,4.6,1.4C352.1,56.5,354,56.1,355.7,55.2z"/>
	<path class="st3" d="M385.2,61.2c-1.9-1.6-2.8-4-2.8-7V4.1h9.7v48.5c0,2.2,1.2,3.3,3.6,3.3c1,0,2.1-0.1,3.5-0.4v7.1
		c-2.2,0.7-4.4,1-6.6,1C389.6,63.7,387.1,62.9,385.2,61.2z"/>
	<path class="st3" d="M409.9,59.4c-3.1-2.8-4.7-6.5-5-11h8.9c0.4,5.3,3.5,7.9,9.3,7.9c2.3,0,4.1-0.4,5.4-1.1
		c1.3-0.7,1.9-1.8,1.9-3.3v-1.1c0-1.3-0.5-2.3-1.5-3.1c-1-0.8-2.9-1.6-5.8-2.5l-6.3-1.9c-3.3-1-5.9-2.4-7.7-4.2
		c-1.8-1.8-2.7-3.9-2.7-6.3v-2.1c0-2.2,0.7-4.1,2-5.9c1.3-1.7,3.2-3.1,5.7-4c2.4-0.9,5.2-1.4,8.2-1.4c5.5,0,9.8,1.2,12.7,3.7
		c2.9,2.5,4.5,5.9,4.6,10.2H431c-0.2-2.5-1-4.3-2.4-5.3c-1.4-1-3.4-1.5-6.1-1.5c-2.2,0-3.8,0.4-5,1.1c-1.2,0.8-1.8,1.7-1.8,2.9v1.1
		c0,1.2,0.5,2.2,1.6,3c1.1,0.8,3,1.6,5.7,2.4l6.3,2c3.4,1.1,6,2.4,7.8,4c1.8,1.6,2.7,3.9,2.7,6.8V52c0,3.6-1.6,6.5-4.8,8.5
		c-3.2,2.1-7.1,3.1-11.7,3.1C417.4,63.7,413,62.3,409.9,59.4z"/>
</g>
</svg>
